<svg id="Layer_1" data-name="Layer 1" xmlns="http://www.w3.org/2000/svg" viewBox="0 0 337.52 305.01"><defs><style>.cls-1,.cls-3,.cls-4{fill:none;stroke-miterlimit:10;}.cls-1,.cls-3{stroke:#0093d7;}.cls-1{stroke-width:2.5px;}.cls-2{fill:#231f20;}.cls-3{stroke-width:4.38px;}.cls-4{stroke:#231f20;stroke-width:15px;}</style></defs><path class="cls-1" d="M296.45,305.06" transform="translate(-113.11 -234.2)"/><path class="cls-2" d="M232.75,452.11A28.35,28.35,0,0,0,241,467.62q6.48,6.27,17.05,6.27,8.13,0,13.42-3a23.37,23.37,0,0,0,8.47-8,32.76,32.76,0,0,0,4.4-11.53,74,74,0,0,0,1.21-13.51V328.25h15.84V439.13a86.27,86.27,0,0,1-1.65,16.28,45.09,45.09,0,0,1-6.27,15.84,36.69,36.69,0,0,1-12.76,12q-8.15,4.72-20.9,4.72-17,0-27.94-9A38.94,38.94,0,0,1,218,456.07Z" transform="translate(-113.11 -234.2)"/><path class="cls-3" d="M316,298.23a22.29,22.29,0,0,1-1.6,8.52,20.1,20.1,0,0,1-11.12,11.14,22.69,22.69,0,0,1-16.74,0,20.46,20.46,0,0,1-6.69-4.43,20.24,20.24,0,0,1-4.43-6.71,23.46,23.46,0,0,1,0-17,20.38,20.38,0,0,1,4.43-6.72,20.62,20.62,0,0,1,6.69-4.43,22.69,22.69,0,0,1,16.74,0,20.07,20.07,0,0,1,11.12,11.15A22.27,22.27,0,0,1,316,298.23Zm-4.35,0a19.86,19.86,0,0,0-1.14-6.73,16.84,16.84,0,0,0-3.31-5.62,15.81,15.81,0,0,0-5.29-3.85,17.85,17.85,0,0,0-14,0,15.81,15.81,0,0,0-5.29,3.85,16.68,16.68,0,0,0-3.31,5.62,20.27,20.27,0,0,0,0,13.46,16.49,16.49,0,0,0,3.31,5.6,16.15,16.15,0,0,0,5.29,3.82,18,18,0,0,0,14,0,16.15,16.15,0,0,0,5.29-3.82,16.65,16.65,0,0,0,3.31-5.6A19.86,19.86,0,0,0,311.61,298.26Z" transform="translate(-113.11 -234.2)"/><path class="cls-4" d="M362.15,241.7H212.56a19.49,19.49,0,0,0-16.87,9.73L123.22,377a19.46,19.46,0,0,0,0,19.47L195.69,522a19.47,19.47,0,0,0,16.87,9.74H351A19.45,19.45,0,0,0,367.82,522l72.7-125.92a19.47,19.47,0,0,0,.33-18.88l-69-129.65A11,11,0,0,0,362.15,241.7Z" transform="translate(-113.11 -234.2)"/></svg>